<?xml version="1.0" standalone="no"?><!DOCTYPE svg PUBLIC "-//W3C//DTD SVG 1.1//EN" "http://www.w3.org/Graphics/SVG/1.1/DTD/svg11.dtd"><svg t="1755733210311" class="icon" viewBox="0 0 1024 1024" version="1.1" xmlns="http://www.w3.org/2000/svg" p-id="4993" xmlns:xlink="http://www.w3.org/1999/xlink" width="200" height="200"><path d="M236 377.688a24.008 24.008 0 0 1-17-40.944l200.088-200.736a24 24 0 0 1 17-7.056h512a24 24 0 1 1 0 48H446.048l-193.048 193.68a23.92 23.92 0 0 1-17 7.056z" p-id="4994"></path><path d="M236 555.304a24 24 0 0 1-24-24V353.688a24 24 0 1 1 48 0v177.616a24 24 0 0 1-24 24zM748.088 832.952H452.096a24 24 0 1 1 0-48h295.992a24 24 0 1 1 0 48z" p-id="4995"></path><path d="M748.008 832.952a24 24 0 0 1-15.824-42.048L924 622.968V155.232a24 24 0 1 1 48 0v478.616a24 24 0 0 1-8.184 18.056l-200 175.104a23.92 23.92 0 0 1-15.808 5.944z" p-id="4996"></path><path d="M748 376.952h-512c-8.84 0-16-6.432-16-15.264s7.16-16.736 16-16.736h504l196.712-195.248a16 16 0 0 1 22.752 22.504L761.008 372.936c-3 3.04-8.736 4.016-13.008 4.016z" p-id="4997"></path><path d="M748.088 832.952a16 16 0 0 1-16-16v-456a16 16 0 0 1 16-16c8.832 0 15.912 7.168 15.912 16v456c0 8.84-7.08 16-15.912 16zM444 601.84a16 16 0 0 1-16-16v-48.888a16 16 0 0 1 32 0v48.888a16 16 0 0 1-16 16z m0-112.888a16 16 0 0 1-16-16v-64a16 16 0 0 1 32 0v64a16 16 0 0 1-16 16z m0-128a16 16 0 0 1-16-16v-64a16 16 0 0 1 32 0v64a16 16 0 0 1-16 16z m0-128a16 16 0 0 1-16-16v-64a16 16 0 0 1 32 0v64a16 16 0 0 1-16 16zM374.28 712.408a15.984 15.984 0 0 1-10.464-28.104l52.48-45.304a16 16 0 0 1 20.904 24.216l-52.48 45.304a15.912 15.912 0 0 1-10.44 3.888z" p-id="4998"></path><path d="M956 648.952h-64a16 16 0 0 1 0-32h64a16 16 0 0 1 0 32z m-128 0h-64a16 16 0 0 1 0-32h64a16 16 0 0 1 0 32z m-128 0h-64a16 16 0 0 1 0-32h64a16 16 0 0 1 0 32z m-128 0h-64a16 16 0 0 1 0-32h64a16 16 0 0 1 0 32zM260.792 954.712c-38.608 0-231.2-3.632-231.2-75.352 0-7.152 2.12-17.488 11.64-27.792l199.84-373.928a24 24 0 0 1 21.168-12.688h0.072a24 24 0 0 1 21.168 12.816l197.168 374.088c9.296 10.208 11.368 20.44 11.368 27.504-0.016 71.72-192.616 75.352-231.224 75.352z m-179.552-76.272c18.568 11.424 80.6 28.264 179.544 28.264 99.056 0 161.12-16.88 179.616-28.304a23.504 23.504 0 0 1-0.608-1.08L262.088 540.144l-180.184 337.144c-0.216 0.392-0.432 0.784-0.664 1.152z" p-id="4999"></path><path d="M297.28 946.16a16 16 0 0 1-0.56-31.992 702.688 702.688 0 0 0 62.36-4.904 16 16 0 1 1 4.016 31.744 737.12 737.12 0 0 1-65.232 5.144l-0.584 0.008z m-64.008-0.136l-0.664-0.016a718.728 718.728 0 0 1-65.224-5.504 16 16 0 1 1 4.216-31.72c19.488 2.584 40.456 4.352 62.32 5.248a16 16 0 1 1-0.648 31.992z m190.592-17.048a16 16 0 0 1-4.392-31.392c31.576-9.04 38.08-17.472 38.952-18.848a16 16 0 0 1 31.984 0.624c0 21.008-20.328 37.032-62.144 48.992a16.056 16.056 0 0 1-4.4 0.624z m-317.032-1.096a15.84 15.84 0 0 1-4.64-0.696c-39.152-11.84-58.184-27.488-58.184-47.832 0-2.736 0.392-5.496 1.168-8.192a15.96 15.96 0 0 1 19.8-10.952 15.984 15.984 0 0 1 11.2 18.808c1.384 1.904 8.232 9.368 35.28 17.544a16 16 0 1 1-4.624 31.32z m324.472-63.872c-1.616 0-3.264-0.248-4.888-0.776-16.016-5.144-36.712-9.56-59.856-12.8a15.992 15.992 0 0 1-13.632-18.056 15.968 15.968 0 0 1 18.056-13.632c25.28 3.52 47.224 8.24 65.208 14.016a16 16 0 0 1-4.888 31.248z m-317.04-3.28a16.008 16.008 0 0 1-4.184-31.456c18.672-5.056 40.6-9.12 65.184-12.056a16.016 16.016 0 0 1 17.792 13.976 15.984 15.984 0 0 1-13.976 17.792c-23.056 2.768-43.456 6.52-60.624 11.176a16.168 16.168 0 0 1-4.192 0.568z m190.776-15.864l-0.752-0.016a764.76 764.76 0 0 0-37.776-0.832c-8.472 0-16.816 0.144-25.008 0.392a16 16 0 0 1-0.984-31.992c8.744-0.272 17.712-0.344 26.696-0.408 13 0 25.976 0.288 38.536 0.864a16 16 0 1 1-0.712 31.992z" p-id="5000"></path></svg>