<?xml version="1.0" standalone="no"?><!DOCTYPE svg PUBLIC "-//W3C//DTD SVG 1.1//EN" "http://www.w3.org/Graphics/SVG/1.1/DTD/svg11.dtd"><svg t="1755734486439" class="icon" viewBox="0 0 1024 1024" version="1.1" xmlns="http://www.w3.org/2000/svg" p-id="8061" xmlns:xlink="http://www.w3.org/1999/xlink" width="200" height="200"><path d="M135.105939 731.073939a31.030303 31.030303 0 0 1 31.030303-31.030303h248.242425a31.030303 31.030303 0 1 1 0 62.060606h-248.242425a31.030303 31.030303 0 0 1-31.030303-31.030303z" fill="#303133" p-id="8062"></path><path d="M290.257455 575.922424a31.030303 31.030303 0 0 1 31.030303 31.030303v248.242425a31.030303 31.030303 0 0 1-62.060606 0v-248.242425a31.030303 31.030303 0 0 1 31.030303-31.030303zM135.105939 296.649697a31.030303 31.030303 0 0 1 31.030303-31.030303h248.242425a31.030303 31.030303 0 1 1 0 62.060606h-248.242425a31.030303 31.030303 0 0 1-31.030303-31.030303zM569.530182 669.261576a31.030303 31.030303 0 0 1 31.030303-31.030303h248.242424a31.030303 31.030303 0 1 1 0 62.060606h-248.242424a31.030303 31.030303 0 0 1-31.030303-31.030303zM569.530182 792.886303a31.030303 31.030303 0 0 1 31.030303-31.030303h248.242424a31.030303 31.030303 0 1 1 0 62.060606h-248.242424a31.030303 31.030303 0 0 1-31.030303-31.030303zM839.71103 181.620364a31.030303 31.030303 0 0 1 0 43.876848l-186.181818 186.181818a31.030303 31.030303 0 0 1-43.876848-43.876848l186.181818-186.181818a31.030303 31.030303 0 0 1 43.876848 0z" fill="#303133" p-id="8063"></path><path d="M609.652364 181.620364a31.030303 31.030303 0 0 1 43.876848 0l186.181818 186.181818a31.030303 31.030303 0 0 1-43.876848 43.876848l-186.181818-186.181818a31.030303 31.030303 0 0 1 0-43.876848z" fill="#303133" p-id="8064"></path></svg>