<?xml version="1.0" standalone="no"?><!DOCTYPE svg PUBLIC "-//W3C//DTD SVG 1.1//EN" "http://www.w3.org/Graphics/SVG/1.1/DTD/svg11.dtd"><svg t="1755734675857" class="icon" viewBox="0 0 1024 1024" version="1.1" xmlns="http://www.w3.org/2000/svg" p-id="9053" xmlns:xlink="http://www.w3.org/1999/xlink" width="200" height="200"><path d="M860.8 235.2v537.6H976l-153.6 169.6-153.6-169.6H784V235.2h-115.2l153.6-153.6 153.6 153.6h-115.2zM416 0H67.2C30.4 0 0 30.4 0 67.2v889.6C0 993.6 30.4 1024 67.2 1024H416c36.8 0 67.2-30.4 67.2-67.2V67.2C484.8 30.4 454.4 0 416 0z m-3.2 952H72v-118.4h217.6c19.2 0 35.2-16 35.2-35.2 0-19.2-16-35.2-35.2-35.2H72v-118.4h217.6c19.2 0 35.2-16 35.2-35.2 0-19.2-16-35.2-35.2-35.2H72v-118.4h217.6c19.2 0 35.2-16 35.2-35.2 0-19.2-16-35.2-35.2-35.2H72v-118.4h217.6c19.2 0 35.2-16 35.2-35.2s-16-35.2-35.2-35.2H72V72h340.8v880zM985.6 1024H659.2c-20.8 0-38.4-17.6-38.4-38.4 0-20.8 17.6-38.4 38.4-38.4h326.4c20.8 0 38.4 17.6 38.4 38.4 0 20.8-17.6 38.4-38.4 38.4zM985.6 76.8H659.2c-20.8 0-38.4-17.6-38.4-38.4 0-20.8 17.6-38.4 38.4-38.4h326.4C1006.4 0 1024 17.6 1024 38.4c0 20.8-17.6 38.4-38.4 38.4z" fill="#666666" p-id="9054"></path></svg>